<svg width="2613" height="454" viewBox="0 0 2613 454" fill="none" xmlns="http://www.w3.org/2000/svg">
<g clip-path="url(#clip0_13076_311)">
<path d="M213.453 203.934L95.9414 0.00195312L304.644 157.886L213.453 203.934Z" fill="url(#paint0_linear_13076_311)"/>
<path d="M371.102 453.687L207.98 359.39L426.327 326.293L371.102 453.687Z" fill="#1A216F"/>
<mask id="mask0_13076_311" style="mask-type:luminance" maskUnits="userSpaceOnUse" x="95" y="0" width="332" height="204">
<path d="M212.674 203.866L304.642 157.884L95.9375 0.00195312H426.362L404.598 107.907L212.674 203.866Z" fill="white"/>
</mask>
<g mask="url(#mask0_13076_311)">
<path d="M212.674 203.866L304.642 157.884L95.9375 0.00195312H426.362L404.597 107.907L212.674 203.866Z" fill="url(#paint1_linear_13076_311)"/>
</g>
<mask id="mask1_13076_311" style="mask-type:luminance" maskUnits="userSpaceOnUse" x="0" y="291" width="372" height="163">
<path d="M371.105 453.687H0V296.95L109.384 291.102L209.475 359.298L371.105 453.687Z" fill="white"/>
</mask>
<g mask="url(#mask1_13076_311)">
<path d="M371.105 453.687H0V296.95L109.384 291.102L209.475 359.298L371.105 453.687Z" fill="url(#paint2_linear_13076_311)"/>
</g>
<mask id="mask2_13076_311" style="mask-type:luminance" maskUnits="userSpaceOnUse" x="40" y="0" width="388" height="454">
<path d="M95.9355 0L427.999 326.175L371.103 453.687L78.5146 227.671C43.6527 200.742 31.2732 153.734 48.3509 113.13L95.9355 0Z" fill="white"/>
</mask>
<g mask="url(#mask2_13076_311)">
<path d="M95.9355 0L427.999 326.175L371.103 453.687L78.5146 227.671C43.6527 200.742 31.2732 153.734 48.3509 113.13L95.9355 0Z" fill="url(#paint3_linear_13076_311)"/>
</g>
</g>
<path d="M2505.73 378.32C2486.77 378.32 2469.85 373.88 2454.97 365C2440.09 355.88 2428.33 343.52 2419.69 327.92C2411.05 312.32 2406.73 295.04 2406.73 276.08C2406.73 256.88 2411.05 239.6 2419.69 224.24C2428.33 208.88 2440.09 196.64 2454.97 187.52C2470.09 178.4 2486.89 173.84 2505.37 173.84C2520.25 173.84 2533.45 176.84 2544.97 182.84C2556.73 188.6 2565.97 196.76 2572.69 207.32L2565.49 217.04V101.48H2612.65V374H2568.01V336.201L2573.05 345.56C2566.33 356.12 2556.97 364.28 2544.97 370.04C2532.97 375.56 2519.89 378.32 2505.73 378.32ZM2510.77 335.12C2521.57 335.12 2531.05 332.6 2539.21 327.56C2547.37 322.52 2553.73 315.56 2558.29 306.68C2563.09 297.8 2565.49 287.6 2565.49 276.08C2565.49 264.8 2563.09 254.72 2558.29 245.84C2553.73 236.72 2547.37 229.64 2539.21 224.6C2531.05 219.56 2521.57 217.04 2510.77 217.04C2500.21 217.04 2490.73 219.68 2482.33 224.96C2473.93 230 2467.33 236.96 2462.53 245.84C2457.97 254.48 2455.69 264.56 2455.69 276.08C2455.69 287.6 2457.97 297.8 2462.53 306.68C2467.33 315.56 2473.93 322.52 2482.33 327.56C2490.73 332.6 2500.21 335.12 2510.77 335.12Z" fill="black"/>
<path d="M2275.57 378.32C2256.37 378.32 2238.85 373.88 2223.01 365C2207.41 356.12 2194.93 344 2185.57 328.64C2176.45 313.28 2171.89 295.76 2171.89 276.08C2171.89 256.4 2176.45 238.88 2185.57 223.52C2194.93 208.16 2207.41 196.04 2223.01 187.16C2238.61 178.28 2256.13 173.84 2275.57 173.84C2294.77 173.84 2312.17 178.28 2327.77 187.16C2343.37 196.04 2355.73 208.16 2364.85 223.52C2374.21 238.64 2378.89 256.16 2378.89 276.08C2378.89 295.76 2374.21 313.28 2364.85 328.64C2355.49 344 2343.01 356.12 2327.41 365C2311.81 373.88 2294.53 378.32 2275.57 378.32ZM2275.57 335.12C2286.13 335.12 2295.37 332.6 2303.29 327.56C2311.45 322.52 2317.81 315.56 2322.37 306.68C2327.17 297.56 2329.57 287.36 2329.57 276.08C2329.57 264.56 2327.17 254.48 2322.37 245.84C2317.81 236.96 2311.45 230 2303.29 224.96C2295.37 219.68 2286.13 217.04 2275.57 217.04C2264.77 217.04 2255.29 219.68 2247.13 224.96C2238.97 230 2232.49 236.96 2227.69 245.84C2223.13 254.48 2220.85 264.56 2220.85 276.08C2220.85 287.36 2223.13 297.56 2227.69 306.68C2232.49 315.56 2238.97 322.52 2247.13 327.56C2255.29 332.6 2264.77 335.12 2275.57 335.12Z" fill="black"/>
<path d="M2040.73 378.32C2021.53 378.32 2004.01 373.88 1988.17 365C1972.57 356.12 1960.09 344 1950.73 328.64C1941.61 313.28 1937.05 295.76 1937.05 276.08C1937.05 256.4 1941.61 238.88 1950.73 223.52C1960.09 208.16 1972.57 196.04 1988.17 187.16C2003.77 178.28 2021.29 173.84 2040.73 173.84C2059.93 173.84 2077.33 178.28 2092.93 187.16C2108.53 196.04 2120.89 208.16 2130.01 223.52C2139.37 238.64 2144.05 256.16 2144.05 276.08C2144.05 295.76 2139.37 313.28 2130.01 328.64C2120.65 344 2108.17 356.12 2092.57 365C2076.97 373.88 2059.69 378.32 2040.73 378.32ZM2040.73 335.12C2051.29 335.12 2060.53 332.6 2068.45 327.56C2076.61 322.52 2082.97 315.56 2087.53 306.68C2092.33 297.56 2094.73 287.36 2094.73 276.08C2094.73 264.56 2092.33 254.48 2087.53 245.84C2082.97 236.96 2076.61 230 2068.45 224.96C2060.53 219.68 2051.29 217.04 2040.73 217.04C2029.93 217.04 2020.45 219.68 2012.29 224.96C2004.13 230 1997.65 236.96 1992.85 245.84C1988.29 254.48 1986.01 264.56 1986.01 276.08C1986.01 287.36 1988.29 297.56 1992.85 306.68C1997.65 315.56 2004.13 322.52 2012.29 327.56C2020.45 332.6 2029.93 335.12 2040.73 335.12Z" fill="black"/>
<path d="M1627.6 374.001V105.801H1674.4L1774.84 242.241H1752.52L1850.8 105.801H1897.6V374.001H1848.28V161.601L1867.36 166.281L1765.48 302.001H1759.72L1660.36 166.281L1676.56 161.601V374.001H1627.6Z" fill="black"/>
<path d="M1415.87 374V101.48H1463.03V280.04L1445.03 274.64L1537.19 178.16H1595.87L1523.51 257L1597.31 374H1543.31L1479.23 272.48L1507.31 266.72L1448.27 330.08L1463.03 301.28V374H1415.87Z" fill="black"/>
<path d="M1291.16 378.32C1271.72 378.32 1254.2 373.88 1238.6 365C1223.24 355.88 1211.12 343.64 1202.24 328.28C1193.36 312.68 1188.92 295.16 1188.92 275.72C1188.92 256.28 1193.36 238.88 1202.24 223.52C1211.12 208.16 1223.24 196.04 1238.6 187.16C1254.2 178.28 1271.72 173.84 1291.16 173.84C1305.08 173.84 1318.04 176.36 1330.04 181.4C1342.04 186.2 1352.36 192.92 1361 201.56C1369.88 209.96 1376.24 220.04 1380.08 231.8L1338.68 249.8C1335.08 239.96 1328.96 232.04 1320.32 226.04C1311.92 220.04 1302.2 217.04 1291.16 217.04C1280.84 217.04 1271.6 219.56 1263.44 224.6C1255.52 229.64 1249.28 236.6 1244.72 245.48C1240.16 254.36 1237.88 264.56 1237.88 276.08C1237.88 287.6 1240.16 297.8 1244.72 306.68C1249.28 315.56 1255.52 322.52 1263.44 327.56C1271.6 332.6 1280.84 335.12 1291.16 335.12C1302.44 335.12 1312.28 332.12 1320.68 326.12C1329.08 320.12 1335.08 312.08 1338.68 302L1380.08 320.72C1376.24 331.76 1370 341.72 1361.36 350.6C1352.72 359.24 1342.4 366.08 1330.4 371.12C1318.4 375.92 1305.32 378.32 1291.16 378.32Z" fill="black"/>
<path d="M1057.76 378.32C1038.56 378.32 1021.04 373.88 1005.2 365C989.598 356.12 977.118 344 967.758 328.64C958.638 313.28 954.078 295.76 954.078 276.08C954.078 256.4 958.638 238.88 967.758 223.52C977.118 208.16 989.598 196.04 1005.2 187.16C1020.8 178.28 1038.32 173.84 1057.76 173.84C1076.96 173.84 1094.36 178.28 1109.96 187.16C1125.56 196.04 1137.92 208.16 1147.04 223.52C1156.4 238.64 1161.08 256.16 1161.08 276.08C1161.08 295.76 1156.4 313.28 1147.04 328.64C1137.68 344 1125.2 356.12 1109.6 365C1094 373.88 1076.72 378.32 1057.76 378.32ZM1057.76 335.12C1068.32 335.12 1077.56 332.6 1085.48 327.56C1093.64 322.52 1100 315.56 1104.56 306.68C1109.36 297.56 1111.76 287.36 1111.76 276.08C1111.76 264.56 1109.36 254.48 1104.56 245.84C1100 236.96 1093.64 230 1085.48 224.96C1077.56 219.68 1068.32 217.04 1057.76 217.04C1046.96 217.04 1037.48 219.68 1029.32 224.96C1021.16 230 1014.68 236.96 1009.88 245.84C1005.32 254.48 1003.04 264.56 1003.04 276.08C1003.04 287.36 1005.32 297.56 1009.88 306.68C1014.68 315.56 1021.16 322.52 1029.32 327.56C1037.48 332.6 1046.96 335.12 1057.76 335.12Z" fill="black"/>
<path d="M904.328 376.16C882.248 376.16 865.088 370.16 852.848 358.16C840.848 345.92 834.848 328.76 834.848 306.68V220.28H801.008V178.16H804.608C814.208 178.16 821.648 175.64 826.928 170.6C832.208 165.56 834.848 158.24 834.848 148.64V133.52H882.008V178.16H927.008V220.28H882.008V304.16C882.008 310.64 883.088 316.16 885.248 320.72C887.648 325.28 891.248 328.76 896.048 331.16C901.088 333.56 907.448 334.76 915.128 334.76C916.808 334.76 918.728 334.64 920.888 334.4C923.288 334.16 925.568 333.92 927.728 333.68V374C924.368 374.48 920.528 374.96 916.208 375.44C911.888 375.92 907.928 376.16 904.328 376.16Z" fill="black"/>
<path d="M681.679 378.32C664.639 378.32 648.799 375.2 634.159 368.96C619.759 362.72 607.279 354.08 596.719 343.04C586.399 331.76 578.839 318.68 574.039 303.8L614.719 286.16C621.199 301.52 630.559 313.64 642.799 322.52C655.039 331.16 668.839 335.48 684.199 335.48C692.839 335.48 700.279 334.16 706.519 331.52C712.999 328.64 717.919 324.8 721.279 320C724.879 315.2 726.679 309.44 726.679 302.72C726.679 294.8 724.279 288.32 719.479 283.28C714.919 278 707.959 273.92 698.599 271.04L647.119 254.48C626.239 248 610.519 238.28 599.959 225.32C589.399 212.36 584.119 197.12 584.119 179.6C584.119 164.24 587.839 150.68 595.279 138.92C602.959 127.16 613.519 118.04 626.959 111.56C640.639 104.84 656.239 101.48 673.759 101.48C689.839 101.48 704.599 104.36 718.039 110.12C731.479 115.64 742.999 123.44 752.599 133.52C762.439 143.36 769.759 155 774.559 168.44L734.239 186.44C728.959 173 721.039 162.68 710.479 155.48C699.919 148.04 687.679 144.32 673.759 144.32C665.599 144.32 658.399 145.76 652.159 148.64C645.919 151.28 640.999 155.12 637.399 160.16C634.039 164.96 632.359 170.72 632.359 177.44C632.359 184.88 634.759 191.48 639.559 197.24C644.359 202.76 651.679 207.08 661.519 210.2L710.839 225.68C732.199 232.64 748.159 242.24 758.719 254.48C769.519 266.72 774.919 281.84 774.919 299.84C774.919 315.2 770.959 328.76 763.039 340.52C755.119 352.28 744.199 361.52 730.279 368.24C716.359 374.96 700.159 378.32 681.679 378.32Z" fill="black"/>
<defs>
<linearGradient id="paint0_linear_13076_311" x1="95.6331" y1="0.00195175" x2="258.565" y2="187.456" gradientUnits="userSpaceOnUse">
<stop stop-color="#232C94"/>
<stop offset="1" stop-color="#2C37B8"/>
</linearGradient>
<linearGradient id="paint1_linear_13076_311" x1="423.625" y1="-38.9869" x2="154.729" y2="105.229" gradientUnits="userSpaceOnUse">
<stop stop-color="#6B7DF2"/>
<stop offset="1" stop-color="#2C37B8"/>
</linearGradient>
<linearGradient id="paint2_linear_13076_311" x1="-181.995" y1="252.94" x2="305.155" y2="421.524" gradientUnits="userSpaceOnUse">
<stop stop-color="#94A3FF"/>
<stop offset="0.575967" stop-color="#3847D4"/>
<stop offset="1" stop-color="#232C94"/>
</linearGradient>
<linearGradient id="paint3_linear_13076_311" x1="135.364" y1="-21.2852" x2="353.92" y2="571.484" gradientUnits="userSpaceOnUse">
<stop stop-color="#6B7DF2"/>
<stop offset="1" stop-color="#2C37B8"/>
</linearGradient>
<clipPath id="clip0_13076_311">
<rect width="428" height="454" fill="white"/>
</clipPath>
</defs>
</svg>
